<?xml version="1.0" encoding="utf-8"?>
<!-- Generator: Adobe Illustrator 28.2.0, SVG Export Plug-In . SVG Version: 6.00 Build 0)  -->
<svg version="1.1" id="_x32_" xmlns="http://www.w3.org/2000/svg" xmlns:xlink="http://www.w3.org/1999/xlink" x="0px" y="0px"
	 viewBox="0 0 800 800" style="enable-background:new 0 0 800 800;" xml:space="preserve">
<style type="text/css">
	.st0{fill:#F6AC38;}
</style>
<g>
	<path class="st0" d="M186.7,104C83.6,104,0,187.6,0,290.8c0,103.1,83.6,186.7,186.7,186.7c0,0-0.9,69.4-57.3,169.2
		c-6.3,20,4.9,41.3,24.9,47.5c14.2,4.5,29.1,0.1,38.8-10c129.6-141.7,180.3-308.5,180.3-393.4C373.4,187.6,289.8,104,186.7,104z"/>
	<path class="st0" d="M613.3,104c-103.1,0-186.7,83.6-186.7,186.7c0,103.1,83.6,186.7,186.7,186.7c0,0-0.9,69.4-57.3,169.2
		c-6.3,20,4.9,41.3,24.9,47.5c14.2,4.5,29.1,0.1,38.8-10C749.3,542.5,800,375.7,800,290.8C800,187.6,716.4,104,613.3,104z"/>
</g>
</svg>
