<?xml version="1.0" encoding="utf-8"?>
<!-- Generator: Adobe Illustrator 28.2.0, SVG Export Plug-In . SVG Version: 6.00 Build 0)  -->
<svg version="1.1" id="like" xmlns="http://www.w3.org/2000/svg" xmlns:xlink="http://www.w3.org/1999/xlink" x="0px" y="0px"
	 viewBox="0 0 512 512" style="enable-background:new 0 0 512 512;" xml:space="preserve">
<style type="text/css">
	.st0{fill:#F6AC38;}
	.st1{fill:#FFFFFF;}
</style>
<path class="st0" d="M256,9.4C119.8,9.4,9.4,119.8,9.4,256S119.8,502.6,256,502.6S502.6,392.2,502.6,256S392.2,9.4,256,9.4z
	 M184.5,366.9c0,6.4-5.6,11.6-12.4,11.6h-32.8c-6.9,0-12.4-5.2-12.4-11.6v-99.8c0-6.4,5.6-11.6,12.4-11.6h32.8
	c6.8,0,12.4,5.2,12.4,11.6V366.9z M377,302.7c-3.9,4-5.7,9.6-4.9,15.1c0.9,6.4,0.2,15-7.5,21.9c-4.7,4.4-6.9,10.8-5.7,17.1
	c2,12-4.1,29-57.4,26.5l-69.3-1.6c-0.6,0-1.2-0.1-1.8-0.1c-5.7-0.7-35.6-5-33.3-18.3l-0.1-92.8c0-2.4,0.5-4.9,1.4-7.1l39.1-76.6
	c0.6-1.2,0.9-2.4,0.9-3.7v-35.9c-0.1-6.5,3.4-12.6,9-15.9c5.8-3.3,13.8-5,22.7,1.6c17.5,13,18,20,18,20s7.9,23.4,4.6,44.7
	c-1.6,10.1,5.3,19.5,15.3,21.1c1,0.2,1.9,0.2,2.9,0.2h39.9c0.6,0,1.3,0,1.9,0.1c6.1,0.7,33.8,5.4,24,36.5c-1.8,5.6-0.6,11.7,3,16.3
	C385.2,278.5,389.6,289.7,377,302.7z"/>
<path class="st1" d="M376.9,255.5c9.7-31.1-18-35.8-24-36.5c-0.6-0.1-1.3-0.1-1.9-0.1H311c-10.2,0-18.4-8.3-18.4-18.5
	c0-1,0.1-1.9,0.2-2.8c3.3-21.3-4.6-44.7-4.6-44.7s-0.4-7.1-18-20c-8.9-6.6-17-4.9-22.7-1.6c-5.6,3.3-9.1,9.3-9,15.9v35.9
	c0,1.3-0.3,2.6-0.9,3.7l-39.1,76.6c-0.9,2.3-1.4,4.7-1.4,7.1l0.1,92.8c-2.3,13.2,27.6,17.5,33.3,18.3c0.6,0.1,1.2,0.1,1.8,0.1
	l69.3,1.6c53.2,2.5,59.4-14.5,57.4-26.5c-1.2-6.3,1-12.8,5.7-17.1c7.7-6.9,8.4-15.6,7.5-21.9c-0.8-5.5,1-11.1,4.9-15.2
	c12.6-13,8.2-24.2,2.9-30.9C376.2,267.2,375.1,261.1,376.9,255.5L376.9,255.5z M172.1,255.5h-32.8c-6.9,0-12.4,5.2-12.4,11.6v99.8
	c0,6.4,5.6,11.6,12.4,11.6h32.8c6.8,0,12.4-5.2,12.4-11.6v-99.8C184.5,260.7,178.9,255.5,172.1,255.5L172.1,255.5z"/>
</svg>
